# xmcd CD Database Entry
#
# Track frame offsets:
# 150
# 19419
# 35507
# 56437
# 72805
# 89260
# 106625
# 129592
# 154375
# 173252
#
# Disc length: 2359 seconds
#
# Revision: 1
# Processed by: cddbd v1.4PL0 Copyright (c) Steve Scherf et al.
# Submitted via: tcd 2.0b
#
DISCID=7609350a
DTITLE=Downtown Charlie Brown/Blues Buffet
DYEAR=1900
DGENRE=
TTITLE0=Caldonia
TTITLE1=All of Me
TTITLE2=Mother Nature
TTITLE3=Built for Comfort
TTITLE4=Big Fat Momma ("Murmur Low")
TTITLE5=You Can Have My Husband
TTITLE6=Ain't it Just Like a Woman
TTITLE7=Mojo
TTITLE8=Dr. Feelgood
TTITLE9=(Out takes)
EXTD=
EXTT0=
EXTT1=
EXTT2=
EXTT3=
EXTT4=
EXTT5=
EXTT6=
EXTT7=
EXTT8=
EXTT9=
PLAYORDER=
